<?xml version="1.0" standalone="no"?>
<!DOCTYPE svg PUBLIC "-//W3C//DTD SVG 20010904//EN"
 "http://www.w3.org/TR/2001/REC-SVG-20010904/DTD/svg10.dtd">
<svg version="1.0" xmlns="http://www.w3.org/2000/svg"
 width="1024.000000pt" height="1024.000000pt" viewBox="0 0 1024.000000 1024.000000"
 preserveAspectRatio="xMidYMid meet">
<metadata>
Created by potrace 1.14, written by Peter Selinger 2001-2017
</metadata>
<g transform="translate(0.000000,1024.000000) scale(0.100000,-0.100000)"
fill="#000000" stroke="none">
<path d="M2487 10094 c-1 -1 -38 -4 -82 -8 -350 -27 -597 -125 -804 -321 -210
-199 -328 -454 -346 -748 l-4 -60 -436 -436 c-239 -240 -441 -445 -449 -456
-79 -116 -146 -326 -176 -555 -6 -47 -13 -96 -15 -110 -2 -14 -7 -65 -10 -115
-4 -49 -9 -106 -11 -125 -2 -19 -6 -201 -9 -405 -6 -398 -2 -442 47 -545 87
-180 276 -219 401 -81 67 74 93 151 106 316 5 61 17 138 27 170 71 234 305
517 679 824 114 93 357 257 542 366 l133 77 87 -14 c468 -80 922 133 1160 544
25 43 47 78 49 78 2 0 11 -17 20 -37 54 -129 -28 -362 -244 -687 -26 -39 -49
-73 -52 -76 -3 -3 -22 -27 -41 -55 -29 -41 -228 -301 -272 -355 -13 -16 -146
-216 -191 -288 -32 -51 -154 -289 -180 -352 -21 -51 -86 -237 -91 -260 -2 -8
-13 -49 -24 -90 -74 -269 -90 -647 -36 -875 78 -333 253 -616 490 -792 33 -24
67 -50 75 -56 58 -48 329 -164 420 -181 19 -3 46 -9 60 -12 14 -3 41 -8 60
-12 47 -8 365 -9 415 0 187 32 344 82 495 157 92 46 266 150 292 174 7 7 42
34 78 62 88 67 271 248 345 339 63 79 72 84 220 134 33 11 107 39 165 61 58
23 105 41 105 41 1 0 1 -451 1 -1002 l-1 -1003 -32 -65 c-49 -98 -47 -178 7
-275 l27 -50 -1 -770 -1 -770 -335 -1 c-280 0 -341 -3 -370 -16 -107 -48 -154
-178 -103 -285 16 -35 62 -78 99 -95 26 -12 50 -120 60 -270 l7 -98 -74 -75
c-41 -42 -82 -91 -92 -109 -38 -72 -23 -173 35 -233 90 -93 228 -85 326 20 21
23 48 50 59 60 56 49 339 77 551 54 92 -10 122 -21 122 -45 0 -44 94 -138 150
-150 84 -17 174 17 224 86 28 39 31 51 30 110 -1 58 -19 121 -136 470 l-135
403 0 857 0 857 30 58 c51 97 46 225 -12 299 -17 22 -18 77 -18 1111 l0 1087
158 51 157 51 84 -45 c45 -24 129 -70 186 -101 56 -31 105 -56 107 -56 3 0 26
-13 52 -29 27 -15 86 -48 133 -73 47 -25 117 -62 155 -83 119 -65 176 -96 275
-148 52 -27 109 -57 125 -67 17 -10 66 -37 110 -60 44 -24 107 -58 140 -76 33
-18 89 -48 125 -68 36 -19 64 -37 63 -41 -2 -5 -201 -170 -393 -325 -24 -19
-121 -98 -215 -175 -95 -77 -191 -156 -215 -175 -24 -19 -74 -60 -110 -90 -37
-30 -123 -100 -191 -155 -202 -162 -197 -154 -224 -380 -3 -27 -8 -63 -10 -80
-8 -64 -27 -212 -31 -255 -3 -25 -6 -56 -9 -70 -2 -14 -7 -50 -10 -80 -4 -30
-9 -62 -10 -71 -2 -9 -6 -52 -10 -95 -4 -43 -9 -81 -10 -84 -12 -21 -15 -159
-5 -195 44 -157 253 -196 359 -68 17 21 31 43 31 50 0 35 151 76 278 75 107 0
131 -11 161 -71 26 -50 102 -117 142 -125 107 -21 185 11 237 96 30 48 37 112
20 163 -8 22 -145 236 -304 475 l-290 435 125 102 c69 56 221 179 336 274 226
184 441 359 621 505 108 87 115 91 172 96 98 9 175 62 225 153 31 58 31 183
-1 242 -60 114 -175 171 -300 150 -47 -8 -59 -6 -100 15 -26 14 -191 103 -367
197 -176 95 -354 191 -395 214 -41 22 -95 51 -120 65 -25 13 -88 47 -140 75
-52 28 -108 58 -123 68 l-29 17 29 6 c118 24 567 25 748 1 17 -2 59 -7 95 -10
36 -4 74 -9 85 -11 11 -2 34 -7 50 -9 28 -5 108 -20 165 -31 135 -26 295 -75
525 -159 862 -317 1265 -375 1446 -208 87 81 108 240 58 438 -43 171 -135 385
-266 624 -35 63 -63 116 -63 117 0 2 -16 28 -35 58 -19 30 -35 58 -35 61 0 3
-8 18 -19 33 -10 15 -58 90 -107 167 -77 122 -279 402 -317 440 -8 7 -42 47
-78 89 -98 117 -346 355 -485 466 -521 416 -1137 665 -1773 717 -112 10 -422
10 -536 1 -173 -14 -424 -57 -555 -95 -344 -101 -586 -218 -801 -389 -392
-312 -704 -767 -850 -1242 -133 -433 -119 -866 40 -1217 17 -38 29 -75 26 -84
-8 -21 -101 -96 -190 -153 -149 -97 -289 -140 -450 -141 -184 -2 -324 71 -421
217 -108 166 -118 410 -30 746 30 113 124 314 218 465 52 83 198 284 251 345
12 14 40 48 62 75 21 28 49 61 62 75 100 112 336 412 425 540 279 404 370 801
277 1207 -6 27 -12 57 -15 67 -16 82 -87 261 -142 361 -153 278 -370 482 -664
624 -226 109 -410 151 -773 177 -78 5 -334 11 -338 8z"/>
</g>
</svg>
